<?xml version="1.0" standalone="no"?>
<!DOCTYPE svg PUBLIC "-//W3C//DTD SVG 20010904//EN"
 "http://www.w3.org/TR/2001/REC-SVG-20010904/DTD/svg10.dtd">
<svg version="1.0" xmlns="http://www.w3.org/2000/svg"
 width="840.000000pt" height="840.000000pt" viewBox="0 0 840.000000 840.000000"
 preserveAspectRatio="xMidYMid meet">
<metadata>
Created by potrace 1.14, written by Peter Selinger 2001-2017
</metadata>
<g transform="translate(0.000000,840.000000) scale(0.100000,-0.100000)"
fill="#000000" stroke="none">
<path d="M4107 6534 c-1 -1 -42 -4 -92 -8 -98 -6 -143 -11 -220 -26 -27 -5
-61 -12 -75 -14 -14 -3 -34 -7 -45 -10 -11 -3 -45 -12 -77 -20 -31 -7 -87 -24
-125 -37 -37 -13 -71 -24 -75 -25 -5 -1 -10 -3 -13 -4 -3 -1 -8 -3 -12 -4 -5
-1 -30 -12 -57 -24 -27 -12 -55 -22 -62 -22 -8 0 -14 -4 -14 -10 0 -5 -5 -10
-11 -10 -15 0 -78 -30 -111 -52 -16 -11 -28 -17 -28 -14 0 3 -35 -16 -77 -43
-43 -26 -89 -54 -102 -62 -14 -8 -34 -22 -45 -31 -11 -10 -23 -18 -28 -18 -4
0 -16 -8 -26 -17 -10 -10 -30 -27 -46 -38 -15 -11 -41 -31 -59 -45 -34 -27
-257 -249 -297 -296 -42 -49 -144 -187 -170 -229 -13 -22 -27 -42 -31 -45 -3
-3 -9 -15 -13 -27 -4 -13 -12 -23 -17 -23 -6 0 -7 -5 -4 -10 3 -6 -1 -13 -9
-16 -9 -3 -14 -10 -11 -14 3 -5 -2 -15 -10 -23 -8 -9 -15 -18 -15 -20 0 -3
-22 -51 -49 -108 -27 -57 -53 -117 -56 -132 -4 -15 -12 -27 -18 -27 -6 0 -8
-3 -4 -6 3 -4 -5 -35 -18 -70 -13 -35 -22 -64 -20 -64 2 0 -2 -15 -10 -34 -8
-18 -16 -44 -19 -57 -10 -47 -15 -71 -20 -87 -3 -9 -8 -33 -11 -52 -3 -19 -8
-42 -10 -50 -2 -8 -7 -35 -11 -60 -32 -216 -35 -456 -8 -670 4 -33 6 -48 19
-110 2 -14 7 -41 10 -60 4 -19 18 -75 32 -125 13 -49 26 -97 28 -105 4 -14 38
-108 63 -170 5 -14 26 -60 46 -103 20 -43 36 -82 36 -87 0 -4 7 -13 15 -20 8
-7 12 -16 9 -21 -3 -5 -1 -9 4 -9 5 0 12 -8 15 -17 11 -34 110 -190 161 -254
12 -15 32 -41 46 -59 108 -141 280 -307 440 -426 36 -27 67 -52 68 -56 2 -5 9
-8 16 -8 7 0 21 -9 31 -20 9 -10 20 -18 24 -17 6 1 32 -13 91 -52 14 -9 44
-25 67 -36 24 -11 43 -23 43 -27 0 -5 7 -8 15 -8 8 0 29 -8 47 -18 94 -53 367
-143 528 -176 116 -23 130 -25 205 -32 39 -3 73 -8 76 -10 10 -6 295 -5 369 1
100 8 197 20 230 30 8 2 31 6 50 9 19 4 53 11 75 16 22 6 51 13 65 16 57 11
296 97 375 134 47 22 87 39 89 37 2 -1 12 5 22 13 17 14 41 28 109 64 11 6 22
13 25 16 3 3 25 18 50 32 46 26 195 136 252 186 97 83 316 315 327 346 2 6 10
16 16 21 15 13 95 122 95 130 0 4 11 21 25 39 14 18 25 36 25 40 0 5 8 20 18
34 54 77 174 344 207 462 21 73 56 209 61 234 2 17 7 38 9 46 2 8 7 33 10 55
2 22 7 51 10 65 16 81 23 365 11 485 -4 39 -9 90 -11 115 -2 25 -9 74 -15 110
-7 36 -14 74 -16 85 -7 44 -46 184 -69 250 -39 112 -56 158 -63 169 -3 6 -7
16 -8 21 -3 20 -120 251 -134 265 -3 3 -12 19 -20 35 -8 17 -18 32 -21 35 -9
8 -66 95 -68 103 0 4 -9 16 -18 26 -10 11 -23 26 -28 33 -38 49 -93 116 -110
133 -11 11 -33 35 -48 53 -15 19 -27 31 -27 28 0 -4 -21 18 -47 48 -27 30 -53
55 -60 55 -6 1 -18 9 -25 19 -7 10 -44 43 -83 72 -38 30 -72 57 -75 60 -6 7
-120 82 -200 131 -30 19 -77 45 -105 59 -27 14 -53 29 -57 35 -4 5 -8 6 -8 2
0 -4 -10 -2 -22 5 -13 7 -25 13 -28 13 -3 0 -27 11 -55 24 -27 12 -79 32 -115
44 -36 12 -66 25 -68 30 -2 4 -15 7 -28 7 -14 0 -35 5 -46 11 -11 6 -35 13
-52 16 -17 2 -38 7 -46 10 -8 3 -22 7 -30 9 -8 2 -37 8 -63 13 -27 6 -51 10
-55 10 -4 -1 -9 0 -12 1 -16 6 -74 15 -170 26 -53 6 -318 13 -323 8z m1405
-1284 c53 -13 118 -42 118 -52 0 -5 5 -8 12 -8 39 0 148 -165 152 -230 1 -8 4
-19 7 -25 4 -5 5 -19 3 -30 -2 -11 -4 -38 -5 -60 -2 -45 -44 -159 -68 -186
-37 -40 -679 -684 -714 -715 -20 -19 -35 -34 -33 -34 5 0 -908 -912 -991 -990
-59 -56 -105 -87 -139 -93 -11 -2 -26 -7 -34 -11 -24 -10 -120 -13 -170 -4
-85 14 -185 79 -236 153 -84 122 -88 321 -9 423 40 51 172 190 182 191 6 1 13
5 15 11 3 9 131 140 293 299 47 46 85 85 85 87 0 5 39 44 43 44 3 0 704 702
742 743 9 9 20 17 25 17 5 0 12 9 15 20 3 11 10 20 14 20 10 0 201 191 201
201 0 4 4 9 9 11 5 2 48 40 95 85 69 67 134 113 166 119 3 0 12 3 20 7 49 19
143 22 202 7z"/>
</g>
</svg>
